<svg width="29" height="27" viewBox="0 0 29 27" fill="none" xmlns="http://www.w3.org/2000/svg">
<path d="M6.41495 10H4.76722L7.27788 2.72727H9.25941L11.7665 10H10.1188L8.29705 4.3892H8.24023L6.41495 10ZM6.31197 7.14134H10.204V8.34162H6.31197V7.14134ZM14.3695 10.0888C13.9552 10.0888 13.58 9.98224 13.2438 9.76918C12.91 9.55374 12.6448 9.23769 12.4483 8.82102C12.2542 8.40199 12.1571 7.88826 12.1571 7.27983C12.1571 6.65483 12.2578 6.13518 12.459 5.72088C12.6602 5.30421 12.9277 4.9929 13.2615 4.78693C13.5977 4.5786 13.9658 4.47443 14.3659 4.47443C14.6713 4.47443 14.9258 4.52652 15.1294 4.63068C15.3354 4.73248 15.5011 4.86032 15.6266 5.0142C15.7544 5.16572 15.8515 5.31487 15.9178 5.46165H15.964V2.72727H17.4732V10H15.9817V9.12642H15.9178C15.8468 9.27794 15.7462 9.42827 15.6159 9.57741C15.4881 9.7242 15.3212 9.84612 15.1152 9.94318C14.9116 10.0402 14.6631 10.0888 14.3695 10.0888ZM14.8489 8.88494C15.0927 8.88494 15.2987 8.81866 15.4668 8.68608C15.6373 8.55114 15.7675 8.36293 15.8574 8.12145C15.9498 7.87997 15.9959 7.59706 15.9959 7.27273C15.9959 6.94839 15.9509 6.66667 15.861 6.42756C15.771 6.18845 15.6408 6.00379 15.4703 5.87358C15.2999 5.74337 15.0927 5.67827 14.8489 5.67827C14.6003 5.67827 14.3908 5.74574 14.2203 5.88068C14.0499 6.01562 13.9209 6.20265 13.8333 6.44176C13.7457 6.68087 13.7019 6.95786 13.7019 7.27273C13.7019 7.58996 13.7457 7.8705 13.8333 8.11435C13.9232 8.35582 14.0523 8.54522 14.2203 8.68253C14.3908 8.81747 14.6003 8.88494 14.8489 8.88494ZM20.7269 10.0888C20.3126 10.0888 19.9374 9.98224 19.6012 9.76918C19.2674 9.55374 19.0022 9.23769 18.8058 8.82102C18.6116 8.40199 18.5146 7.88826 18.5146 7.27983C18.5146 6.65483 18.6152 6.13518 18.8164 5.72088C19.0176 5.30421 19.2852 4.9929 19.619 4.78693C19.9551 4.5786 20.3233 4.47443 20.7234 4.47443C21.0288 4.47443 21.2833 4.52652 21.4869 4.63068C21.6928 4.73248 21.8585 4.86032 21.984 5.0142C22.1119 5.16572 22.2089 5.31487 22.2752 5.46165H22.3214V2.72727H23.8306V10H22.3391V9.12642H22.2752C22.2042 9.27794 22.1036 9.42827 21.9734 9.57741C21.8455 9.7242 21.6786 9.84612 21.4727 9.94318C21.2691 10.0402 21.0205 10.0888 20.7269 10.0888ZM21.2063 8.88494C21.4502 8.88494 21.6561 8.81866 21.8242 8.68608C21.9947 8.55114 22.1249 8.36293 22.2148 8.12145C22.3072 7.87997 22.3533 7.59706 22.3533 7.27273C22.3533 6.94839 22.3084 6.66667 22.2184 6.42756C22.1284 6.18845 21.9982 6.00379 21.8278 5.87358C21.6573 5.74337 21.4502 5.67827 21.2063 5.67827C20.9577 5.67827 20.7482 5.74574 20.5778 5.88068C20.4073 6.01562 20.2783 6.20265 20.1907 6.44176C20.1031 6.68087 20.0593 6.95786 20.0593 7.27273C20.0593 7.58996 20.1031 7.8705 20.1907 8.11435C20.2807 8.35582 20.4097 8.54522 20.5778 8.68253C20.7482 8.81747 20.9577 8.88494 21.2063 8.88494Z" fill="#6B6C70"/>
<path d="M14.1742 16.748H11.6856C11.6402 16.4261 11.5473 16.1401 11.4072 15.8901C11.267 15.6363 11.0871 15.4204 10.8674 15.2424C10.6477 15.0643 10.3939 14.928 10.1061 14.8333C9.82197 14.7386 9.51326 14.6912 9.17992 14.6912C8.57765 14.6912 8.05303 14.8408 7.60606 15.1401C7.15909 15.4355 6.8125 15.8674 6.56629 16.4355C6.32008 16.9999 6.19697 17.6855 6.19697 18.4924C6.19697 19.3219 6.32008 20.0189 6.56629 20.5833C6.81629 21.1477 7.16477 21.5738 7.61174 21.8617C8.05871 22.1496 8.57576 22.2935 9.16288 22.2935C9.49242 22.2935 9.79735 22.2499 10.0777 22.1628C10.3617 22.0757 10.6136 21.9488 10.8333 21.7821C11.053 21.6117 11.2348 21.4052 11.3788 21.1628C11.5265 20.9204 11.6288 20.6439 11.6856 20.3333L14.1742 20.3446C14.1098 20.8787 13.9489 21.3939 13.6913 21.8901C13.4375 22.3825 13.0947 22.8238 12.6629 23.214C12.2348 23.6003 11.7235 23.9071 11.1288 24.1344C10.5379 24.3579 9.86932 24.4696 9.12311 24.4696C8.08523 24.4696 7.1572 24.2348 6.33902 23.7651C5.52462 23.2954 4.88068 22.6155 4.4072 21.7253C3.9375 20.8352 3.70265 19.7575 3.70265 18.4924C3.70265 17.2234 3.94129 16.1439 4.41856 15.2537C4.89583 14.3636 5.54356 13.6855 6.36174 13.2196C7.17992 12.7499 8.10038 12.5151 9.12311 12.5151C9.79735 12.5151 10.4223 12.6098 10.9981 12.7992C11.5777 12.9886 12.0909 13.2651 12.5379 13.6287C12.9848 13.9886 13.3485 14.4299 13.6288 14.9526C13.9129 15.4753 14.0947 16.0738 14.1742 16.748ZM18.0407 12.6742L20.8532 21.5151H20.9612L23.7794 12.6742H26.5066L22.4953 24.3105H19.3248L15.3078 12.6742H18.0407Z" fill="#6B6C70"/>
</svg>
