<svg width="29" height="27" viewBox="0 0 29 27" fill="none" xmlns="http://www.w3.org/2000/svg">
<path d="M4.1218 2.72727L5.87962 8.25284H5.94709L7.70845 2.72727H9.413L6.90589 10H4.92436L2.41371 2.72727H4.1218ZM10.2599 10V4.54545H11.7727V10H10.2599ZM11.0199 3.84233C10.795 3.84233 10.602 3.76776 10.4411 3.61861C10.2824 3.46709 10.2031 3.28598 10.2031 3.07528C10.2031 2.86695 10.2824 2.68821 10.4411 2.53906C10.602 2.38755 10.795 2.31179 11.0199 2.31179C11.2448 2.31179 11.4366 2.38755 11.5952 2.53906C11.7562 2.68821 11.8366 2.86695 11.8366 3.07528C11.8366 3.28598 11.7562 3.46709 11.5952 3.61861C11.4366 3.76776 11.2448 3.84233 11.0199 3.84233ZM15.4703 10.1065C14.9093 10.1065 14.4263 9.9929 14.0215 9.76562C13.619 9.53598 13.3089 9.21165 13.0911 8.79261C12.8733 8.37121 12.7644 7.87287 12.7644 7.29759C12.7644 6.73651 12.8733 6.24408 13.0911 5.82031C13.3089 5.39654 13.6155 5.06629 14.0108 4.82955C14.4086 4.5928 14.8749 4.47443 15.41 4.47443C15.7698 4.47443 16.1048 4.53243 16.415 4.64844C16.7275 4.76207 16.9997 4.93371 17.2317 5.16335C17.4661 5.39299 17.6484 5.68182 17.7786 6.02983C17.9088 6.37547 17.9739 6.7803 17.9739 7.24432V7.6598H13.3681V6.7223H16.5499C16.5499 6.5045 16.5025 6.31155 16.4078 6.14347C16.3132 5.97538 16.1818 5.84399 16.0137 5.74929C15.848 5.65223 15.655 5.60369 15.4348 5.60369C15.2052 5.60369 15.0016 5.65696 14.824 5.76349C14.6489 5.86766 14.5115 6.00852 14.4121 6.18608C14.3127 6.36127 14.2618 6.55658 14.2594 6.77202V7.66335C14.2594 7.93324 14.3091 8.16643 14.4086 8.36293C14.5104 8.55942 14.6536 8.71094 14.8382 8.81747C15.0229 8.92401 15.2419 8.97727 15.4952 8.97727C15.6633 8.97727 15.8172 8.9536 15.9569 8.90625C16.0965 8.8589 16.2161 8.78788 16.3155 8.69318C16.415 8.59848 16.4907 8.48248 16.5428 8.34517L17.9419 8.4375C17.8709 8.77367 17.7253 9.06723 17.5051 9.31818C17.2873 9.56676 17.0056 9.76089 16.66 9.90057C16.3167 10.0379 15.9202 10.1065 15.4703 10.1065ZM19.998 10L18.5137 4.54545H20.0442L20.8894 8.21023H20.9391L21.8198 4.54545H23.3219L24.2168 8.18892H24.263L25.0939 4.54545H26.6209L25.1401 10H23.5385L22.601 6.5696H22.5336L21.5961 10H19.998Z" fill="#6B6C70"/>
<path d="M14.1742 16.748H11.6856C11.6402 16.4261 11.5473 16.1401 11.4072 15.8901C11.267 15.6363 11.0871 15.4204 10.8674 15.2424C10.6477 15.0643 10.3939 14.928 10.1061 14.8333C9.82197 14.7386 9.51326 14.6912 9.17992 14.6912C8.57765 14.6912 8.05303 14.8408 7.60606 15.1401C7.15909 15.4355 6.8125 15.8674 6.56629 16.4355C6.32008 16.9999 6.19697 17.6855 6.19697 18.4924C6.19697 19.3219 6.32008 20.0189 6.56629 20.5833C6.81629 21.1477 7.16477 21.5738 7.61174 21.8617C8.05871 22.1496 8.57576 22.2935 9.16288 22.2935C9.49242 22.2935 9.79735 22.2499 10.0777 22.1628C10.3617 22.0757 10.6136 21.9488 10.8333 21.7821C11.053 21.6117 11.2348 21.4052 11.3788 21.1628C11.5265 20.9204 11.6288 20.6439 11.6856 20.3333L14.1742 20.3446C14.1098 20.8787 13.9489 21.3939 13.6913 21.8901C13.4375 22.3825 13.0947 22.8238 12.6629 23.214C12.2348 23.6003 11.7235 23.9071 11.1288 24.1344C10.5379 24.3579 9.86932 24.4696 9.12311 24.4696C8.08523 24.4696 7.1572 24.2348 6.33902 23.7651C5.52462 23.2954 4.88068 22.6155 4.4072 21.7253C3.9375 20.8352 3.70265 19.7575 3.70265 18.4924C3.70265 17.2234 3.94129 16.1439 4.41856 15.2537C4.89583 14.3636 5.54356 13.6855 6.36174 13.2196C7.17992 12.7499 8.10038 12.5151 9.12311 12.5151C9.79735 12.5151 10.4223 12.6098 10.9981 12.7992C11.5777 12.9886 12.0909 13.2651 12.5379 13.6287C12.9848 13.9886 13.3485 14.4299 13.6288 14.9526C13.9129 15.4753 14.0947 16.0738 14.1742 16.748ZM18.0407 12.6742L20.8532 21.5151H20.9612L23.7794 12.6742H26.5066L22.4953 24.3105H19.3248L15.3078 12.6742H18.0407Z" fill="#6B6C70"/>
</svg>
