<svg version="1.0" xmlns="http://www.w3.org/2000/svg"
 width="16px" height="16px" viewBox="0 0 16 16">
    <g transform="translate(0,16) scale(0.1,-0.1)"
        fill="#fd266f" stroke="none">
            <path d="M0 80 l0 -80 80 0 80 0 0 80 0 80 -80 0 -80 0 0 -80z m50 0 c0 -27
                -4 -50 -10 -50 -5 0 -10 23 -10 50 0 28 5 50 10 50 6 0 10 -22 10 -50z m78
                -12 c2 -22 -1 -38 -7 -38 -6 0 -11 14 -11 30 0 20 -5 30 -15 30 -10 0 -15 -10
                -15 -31 0 -17 -4 -28 -10 -24 -10 6 -14 58 -5 67 3 3 18 5 33 4 24 -1 27 -5
                30 -38z"/>
    </g>
</svg>
